<?xml version="1.0" encoding="UTF-8" standalone="no"?>
<svg
   xmlns:dc="http://purl.org/dc/elements/1.1/"
   xmlns:cc="http://creativecommons.org/ns#"
   xmlns:rdf="http://www.w3.org/1999/02/22-rdf-syntax-ns#"
   xmlns:svg="http://www.w3.org/2000/svg"
   xmlns="http://www.w3.org/2000/svg"
   xmlns:sodipodi="http://sodipodi.sourceforge.net/DTD/sodipodi-0.dtd"
   xmlns:inkscape="http://www.inkscape.org/namespaces/inkscape"
   width="48"
   height="48"
   viewBox="0 0 48 48"
   version="1.1"
   id="svg4435"
   sodipodi:docname="lock.svg"
   inkscape:version="0.92.2 5c3e80d, 2017-08-06">
  <metadata
     id="metadata4439">
    <rdf:RDF>
      <cc:Work
         rdf:about="">
        <dc:format>image/svg+xml</dc:format>
        <dc:type
           rdf:resource="http://purl.org/dc/dcmitype/StillImage" />
        <dc:title></dc:title>
      </cc:Work>
    </rdf:RDF>
  </metadata>
  <sodipodi:namedview
     pagecolor="#ffffff"
     bordercolor="#666666"
     borderopacity="1"
     objecttolerance="10"
     gridtolerance="10"
     guidetolerance="10"
     inkscape:pageopacity="0"
     inkscape:pageshadow="2"
     inkscape:window-width="2048"
     inkscape:window-height="1114"
     id="namedview4437"
     showgrid="false"
     inkscape:zoom="4.9166667"
     inkscape:cx="24"
     inkscape:cy="24"
     inkscape:window-x="0"
     inkscape:window-y="18"
     inkscape:window-maximized="0"
     inkscape:current-layer="svg4435" />
  <defs
     id="defs4391">
    <linearGradient
       id="linearGradient3764"
       x1="1"
       x2="47"
       gradientUnits="userSpaceOnUse"
       gradientTransform="translate(-48.000001,0.00221467)">
      <stop
         stop-color="#575757"
         stop-opacity="1"
         id="stop4376" />
      <stop
         offset="1"
         stop-color="#616161"
         stop-opacity="1"
         id="stop4378" />
    </linearGradient>
    <clipPath
       id="clipPath-208119769">
      <g
         transform="translate(0,-1004.3622)"
         id="g4383">
        <rect
           rx="4"
           y="1005.36"
           x="1"
           height="46"
           width="46"
           fill="#1890d0"
           id="rect4381" />
      </g>
    </clipPath>
    <clipPath
       id="clipPath-220839227">
      <g
         transform="translate(0,-1004.3622)"
         id="g4388">
        <rect
           rx="4"
           y="1005.36"
           x="1"
           height="46"
           width="46"
           fill="#1890d0"
           id="rect4386" />
      </g>
    </clipPath>
  </defs>
  <g
     id="g4399">
    <path
       d="m 1 43 l 0 0.25 c 0 2.216 1.784 4 4 4 l 38 0 c 2.216 0 4 -1.784 4 -4 l 0 -0.25 c 0 2.216 -1.784 4 -4 4 l -38 0 c -2.216 0 -4 -1.784 -4 -4 z m 0 0.5 l 0 0.5 c 0 2.216 1.784 4 4 4 l 38 0 c 2.216 0 4 -1.784 4 -4 l 0 -0.5 c 0 2.216 -1.784 4 -4 4 l -38 0 c -2.216 0 -4 -1.784 -4 -4 z"
       opacity="0.02"
       id="path4393" />
    <path
       d="m 1 43.25 l 0 0.25 c 0 2.216 1.784 4 4 4 l 38 0 c 2.216 0 4 -1.784 4 -4 l 0 -0.25 c 0 2.216 -1.784 4 -4 4 l -38 0 c -2.216 0 -4 -1.784 -4 -4 z"
       opacity="0.05"
       id="path4395" />
    <path
       d="m 1 43 l 0 0.25 c 0 2.216 1.784 4 4 4 l 38 0 c 2.216 0 4 -1.784 4 -4 l 0 -0.25 c 0 2.216 -1.784 4 -4 4 l -38 0 c -2.216 0 -4 -1.784 -4 -4 z"
       opacity="0.1"
       id="path4397" />
  </g>
  <g
     id="g4403">
    <rect
       width="46"
       height="46"
       x="-47"
       y="1"
       rx="4"
       transform="matrix(0,-1,1,0,0,0)"
       fill="url(#linearGradient3764)"
       fill-opacity="1"
       id="rect4401" />
  </g>
  <g
     id="g4415">
    <g
       clip-path="url(#clipPath-208119769)"
       id="g4413">
      <g
         opacity="0.1"
         id="g4411">
        <!-- color: #616161 -->
        <g
           id="g4409">
          <path
             d="m 12.805 12 c -0.438 0.047 -0.809 0.461 -0.805 0.902 l 0 15.1 c 0 0.473 0.527 1 1 1 l 9 0 l 0 6 l 4 0 l 0 -6 l 9 0 c 0.473 0 1 -0.527 1 -1 l 0 -15.1 c 0 -0.473 -0.43 -0.902 -0.898 -0.902 m -20.1 2 l 18 0 c 0.469 0 1 0.586 1 1 l 0 11 c 0 0.469 -0.566 1 -1 1 l -18 0 c -0.527 0 -1 -0.48 -1 -1 l 0 -11 c 0 -0.406 0.512 -1 1 -1 m 0 19 l 0 3 l 18 0 l 0 -3 m -18 0"
             stroke="none"
             fill-rule="nonzero"
             fill-opacity="1"
             fill="#000"
             id="path4405" />
          <path
             d="m 13.5 12.5 l 0 16 l 21 0 l 0 -16 m -10.5 1.5 c 0 0 5 0 5 2.5 l 0 2.5 c 0 0 1 0.398 1 1 l 0 6 c 0 0.504 -0.438 1 -1 1 l -10 0 c -0.563 0 -1 -0.496 -1 -1 l 0 -6 c 0 -0.602 1 -1 1 -1 l 0 -2.5 c 0 -2.5 5 -2.5 5 -2.5 m -3 3.5 l 0 1.5 l 6 0 l 0 -1.5 c 0 -2.5 -6 -2.5 -6 0 m 0 0"
             stroke="none"
             fill-rule="nonzero"
             fill-opacity="1"
             fill="#000"
             id="path4407" />
        </g>
      </g>
    </g>
  </g>
  <g
     id="g4427">
    <g
       clip-path="url(#clipPath-220839227)"
       id="g4425">
      <g
         transform="translate(0,-1)"
         id="g4423">
        <!-- color: #616161 -->
        <g
           id="g4421">
          <path
             d="m 12.805 12 c -0.438 0.047 -0.809 0.461 -0.805 0.902 l 0 15.1 c 0 0.473 0.527 1 1 1 l 9 0 l 0 6 l 4 0 l 0 -6 l 9 0 c 0.473 0 1 -0.527 1 -1 l 0 -15.1 c 0 -0.473 -0.43 -0.902 -0.898 -0.902 m -20.1 2 l 18 0 c 0.469 0 1 0.586 1 1 l 0 11 c 0 0.469 -0.566 1 -1 1 l -18 0 c -0.527 0 -1 -0.48 -1 -1 l 0 -11 c 0 -0.406 0.512 -1 1 -1 m 0 19 l 0 3 l 18 0 l 0 -3 m -18 0"
             fill="#eccf53"
             stroke="none"
             fill-rule="nonzero"
             fill-opacity="1"
             id="path4417" />
          <path
             d="m 13.5 12.5 l 0 16 l 21 0 l 0 -16 m -10.5 1.5 c 0 0 5 0 5 2.5 l 0 2.5 c 0 0 1 0.398 1 1 l 0 6 c 0 0.504 -0.438 1 -1 1 l -10 0 c -0.563 0 -1 -0.496 -1 -1 l 0 -6 c 0 -0.602 1 -1 1 -1 l 0 -2.5 c 0 -2.5 5 -2.5 5 -2.5 m -3 3.5 l 0 1.5 l 6 0 l 0 -1.5 c 0 -2.5 -6 -2.5 -6 0 m 0 0"
             fill="#eccf53"
             stroke="none"
             fill-rule="nonzero"
             fill-opacity="1"
             id="path4419" />
        </g>
      </g>
    </g>
  </g>
  <g
     id="g4433">
    <g
       transform="translate(0,-1004.3622)"
       id="g4431">
      <path
         d="m 1 1043.36 0 4 c 0 2.216 1.784 4 4 4 l 38 0 c 2.216 0 4 -1.784 4 -4 l 0 -4 c 0 2.216 -1.784 4 -4 4 l -38 0 c -2.216 0 -4 -1.784 -4 -4 z"
         opacity="0.1"
         id="path4429" />
    </g>
  </g>
</svg>
