<?xml version="1.0" encoding="UTF-8" standalone="no"?>
<svg
   xmlns:dc="http://purl.org/dc/elements/1.1/"
   xmlns:cc="http://creativecommons.org/ns#"
   xmlns:rdf="http://www.w3.org/1999/02/22-rdf-syntax-ns#"
   xmlns:svg="http://www.w3.org/2000/svg"
   xmlns="http://www.w3.org/2000/svg"
   xmlns:sodipodi="http://sodipodi.sourceforge.net/DTD/sodipodi-0.dtd"
   xmlns:inkscape="http://www.inkscape.org/namespaces/inkscape"
   width="48"
   height="48"
   viewBox="0 0 48 48"
   version="1.1"
   id="svg4642"
   sodipodi:docname="logout.svg"
   inkscape:version="0.92.2 5c3e80d, 2017-08-06">
  <metadata
     id="metadata4646">
    <rdf:RDF>
      <cc:Work
         rdf:about="">
        <dc:format>image/svg+xml</dc:format>
        <dc:type
           rdf:resource="http://purl.org/dc/dcmitype/StillImage" />
        <dc:title></dc:title>
      </cc:Work>
    </rdf:RDF>
  </metadata>
  <sodipodi:namedview
     pagecolor="#ffffff"
     bordercolor="#666666"
     borderopacity="1"
     objecttolerance="10"
     gridtolerance="10"
     guidetolerance="10"
     inkscape:pageopacity="0"
     inkscape:pageshadow="2"
     inkscape:window-width="2048"
     inkscape:window-height="1114"
     id="namedview4644"
     showgrid="false"
     inkscape:zoom="4.9166667"
     inkscape:cx="24"
     inkscape:cy="24"
     inkscape:window-x="0"
     inkscape:window-y="18"
     inkscape:window-maximized="0"
     inkscape:current-layer="svg4642" />
  <defs
     id="defs4582">
    <linearGradient
       id="linearGradient3764"
       x1="1"
       x2="47"
       gradientUnits="userSpaceOnUse"
       gradientTransform="translate(-48.000001,0.00221467)">
      <stop
         stop-color="#1f8fed"
         stop-opacity="1"
         id="stop4567" />
      <stop
         offset="1"
         stop-color="#3298ef"
         stop-opacity="1"
         id="stop4569" />
    </linearGradient>
    <clipPath
       id="clipPath-662011408">
      <g
         transform="translate(0,-1004.3622)"
         id="g4574">
        <rect
           rx="4"
           y="1005.36"
           x="1"
           height="46"
           width="46"
           fill="#1890d0"
           id="rect4572" />
      </g>
    </clipPath>
    <clipPath
       id="clipPath-675110393">
      <g
         transform="translate(0,-1004.3622)"
         id="g4579">
        <rect
           rx="4"
           y="1005.36"
           x="1"
           height="46"
           width="46"
           fill="#1890d0"
           id="rect4577" />
      </g>
    </clipPath>
  </defs>
  <g
     id="g4590">
    <path
       d="m 1 43 l 0 0.25 c 0 2.216 1.784 4 4 4 l 38 0 c 2.216 0 4 -1.784 4 -4 l 0 -0.25 c 0 2.216 -1.784 4 -4 4 l -38 0 c -2.216 0 -4 -1.784 -4 -4 z m 0 0.5 l 0 0.5 c 0 2.216 1.784 4 4 4 l 38 0 c 2.216 0 4 -1.784 4 -4 l 0 -0.5 c 0 2.216 -1.784 4 -4 4 l -38 0 c -2.216 0 -4 -1.784 -4 -4 z"
       opacity="0.02"
       id="path4584" />
    <path
       d="m 1 43.25 l 0 0.25 c 0 2.216 1.784 4 4 4 l 38 0 c 2.216 0 4 -1.784 4 -4 l 0 -0.25 c 0 2.216 -1.784 4 -4 4 l -38 0 c -2.216 0 -4 -1.784 -4 -4 z"
       opacity="0.05"
       id="path4586" />
    <path
       d="m 1 43 l 0 0.25 c 0 2.216 1.784 4 4 4 l 38 0 c 2.216 0 4 -1.784 4 -4 l 0 -0.25 c 0 2.216 -1.784 4 -4 4 l -38 0 c -2.216 0 -4 -1.784 -4 -4 z"
       opacity="0.1"
       id="path4588" />
  </g>
  <g
     id="g4594">
    <rect
       width="46"
       height="46"
       x="-47"
       y="1"
       rx="4"
       transform="matrix(0,-1,1,0,0,0)"
       fill="url(#linearGradient3764)"
       fill-opacity="1"
       id="rect4592" />
  </g>
  <g
     id="g4614">
    <g
       clip-path="url(#clipPath-662011408)"
       id="g4612">
      <g
         opacity="0.1"
         id="g4610">
        <!-- color: #3298ef -->
        <g
           id="g4608">
          <path
             d="m 15 14 l 17.996 0 c 1.656 0 3 1.344 3 3 l 0 13.996 c 0 1.66 -1.344 3 -3 3 l -17.996 0 c -1.66 0 -3 -1.34 -3 -3 l 0 -13.996 c 0 -1.656 1.344 -3 3 -3 m 0 0"
             stroke="none"
             fill-rule="nonzero"
             fill-opacity="0.502"
             fill="#000"
             id="path4596" />
          <path
             d="m 17 22 l 14 0 c 0.551 0 1 0.449 1 1 l 0 3 c 0 0.551 -0.449 1 -1 1 l -14 0 c -0.551 0 -1 -0.449 -1 -1 l 0 -3 c 0 -0.551 0.449 -1 1 -1 m 0 0"
             stroke="none"
             fill-rule="nonzero"
             fill-opacity="1"
             fill="#000"
             id="path4598" />
          <path
             d="m 20 24.5 c 0 0.828 -0.672 1.5 -1.5 1.5 c -0.828 0 -1.5 -0.672 -1.5 -1.5 c 0 -0.828 0.672 -1.5 1.5 -1.5 c 0.828 0 1.5 0.672 1.5 1.5 m 0 0"
             stroke="none"
             fill-rule="nonzero"
             fill-opacity="1"
             fill="#000"
             id="path4600" />
          <path
             d="m 24 24.5 c 0 0.828 -0.672 1.5 -1.5 1.5 c -0.828 0 -1.5 -0.672 -1.5 -1.5 c 0 -0.828 0.672 -1.5 1.5 -1.5 c 0.828 0 1.5 0.672 1.5 1.5 m 0 0"
             stroke="none"
             fill-rule="nonzero"
             fill-opacity="1"
             fill="#000"
             id="path4602" />
          <path
             d="m 28 24.5 c 0 0.828 -0.672 1.5 -1.5 1.5 c -0.828 0 -1.5 -0.672 -1.5 -1.5 c 0 -0.828 0.672 -1.5 1.5 -1.5 c 0.828 0 1.5 0.672 1.5 1.5 m 0 0"
             stroke="none"
             fill-rule="nonzero"
             fill-opacity="1"
             fill="#000"
             id="path4604" />
          <path
             d="m 16.242 19 l 7.52 0 c 0.133 0 0.242 0.105 0.242 0.238 l 0 0.52 c 0 0.133 -0.109 0.242 -0.242 0.242 l -7.52 0 c -0.133 0 -0.242 -0.109 -0.242 -0.242 l 0 -0.52 c 0 -0.133 0.109 -0.238 0.242 -0.238 m 0 0"
             stroke="none"
             fill-rule="nonzero"
             fill-opacity="1"
             fill="#000"
             id="path4606" />
        </g>
      </g>
    </g>
  </g>
  <g
     id="g4634">
    <g
       clip-path="url(#clipPath-675110393)"
       id="g4632">
      <g
         transform="translate(0,-1)"
         id="g4630">
        <!-- color: #3298ef -->
        <g
           id="g4628">
          <path
             d="m 15 14 l 17.996 0 c 1.656 0 3 1.344 3 3 l 0 13.996 c 0 1.66 -1.344 3 -3 3 l -17.996 0 c -1.66 0 -3 -1.34 -3 -3 l 0 -13.996 c 0 -1.656 1.344 -3 3 -3 m 0 0"
             fill="#f9f9f9"
             stroke="none"
             fill-rule="nonzero"
             fill-opacity="0.502"
             id="path4616" />
          <path
             d="m 17 22 l 14 0 c 0.551 0 1 0.449 1 1 l 0 3 c 0 0.551 -0.449 1 -1 1 l -14 0 c -0.551 0 -1 -0.449 -1 -1 l 0 -3 c 0 -0.551 0.449 -1 1 -1 m 0 0"
             fill="#f9f9f9"
             stroke="none"
             fill-rule="nonzero"
             fill-opacity="1"
             id="path4618" />
          <path
             d="m 20 24.5 c 0 0.828 -0.672 1.5 -1.5 1.5 c -0.828 0 -1.5 -0.672 -1.5 -1.5 c 0 -0.828 0.672 -1.5 1.5 -1.5 c 0.828 0 1.5 0.672 1.5 1.5 m 0 0"
             fill="#2d2d2d"
             stroke="none"
             fill-rule="nonzero"
             fill-opacity="1"
             id="path4620" />
          <path
             d="m 24 24.5 c 0 0.828 -0.672 1.5 -1.5 1.5 c -0.828 0 -1.5 -0.672 -1.5 -1.5 c 0 -0.828 0.672 -1.5 1.5 -1.5 c 0.828 0 1.5 0.672 1.5 1.5 m 0 0"
             fill="#2d2d2d"
             stroke="none"
             fill-rule="nonzero"
             fill-opacity="1"
             id="path4622" />
          <path
             d="m 28 24.5 c 0 0.828 -0.672 1.5 -1.5 1.5 c -0.828 0 -1.5 -0.672 -1.5 -1.5 c 0 -0.828 0.672 -1.5 1.5 -1.5 c 0.828 0 1.5 0.672 1.5 1.5 m 0 0"
             fill="#2d2d2d"
             stroke="none"
             fill-rule="nonzero"
             fill-opacity="1"
             id="path4624" />
          <path
             d="m 16.242 19 l 7.52 0 c 0.133 0 0.242 0.105 0.242 0.238 l 0 0.52 c 0 0.133 -0.109 0.242 -0.242 0.242 l -7.52 0 c -0.133 0 -0.242 -0.109 -0.242 -0.242 l 0 -0.52 c 0 -0.133 0.109 -0.238 0.242 -0.238 m 0 0"
             fill="#f9f9f9"
             stroke="none"
             fill-rule="nonzero"
             fill-opacity="1"
             id="path4626" />
        </g>
      </g>
    </g>
  </g>
  <g
     id="g4640">
    <g
       transform="translate(0,-1004.3622)"
       id="g4638">
      <path
         d="m 1 1043.36 0 4 c 0 2.216 1.784 4 4 4 l 38 0 c 2.216 0 4 -1.784 4 -4 l 0 -4 c 0 2.216 -1.784 4 -4 4 l -38 0 c -2.216 0 -4 -1.784 -4 -4 z"
         opacity="0.1"
         id="path4636" />
    </g>
  </g>
</svg>
