<?xml version="1.0" encoding="UTF-8" standalone="no"?>
<svg
   xmlns:dc="http://purl.org/dc/elements/1.1/"
   xmlns:cc="http://creativecommons.org/ns#"
   xmlns:rdf="http://www.w3.org/1999/02/22-rdf-syntax-ns#"
   xmlns:svg="http://www.w3.org/2000/svg"
   xmlns="http://www.w3.org/2000/svg"
   xmlns:sodipodi="http://sodipodi.sourceforge.net/DTD/sodipodi-0.dtd"
   xmlns:inkscape="http://www.inkscape.org/namespaces/inkscape"
   width="48"
   height="48"
   viewBox="0 0 48 48"
   version="1.1"
   id="svg4860"
   sodipodi:docname="shutdown.svg"
   inkscape:version="0.92.2 5c3e80d, 2017-08-06">
  <metadata
     id="metadata4864">
    <rdf:RDF>
      <cc:Work
         rdf:about="">
        <dc:format>image/svg+xml</dc:format>
        <dc:type
           rdf:resource="http://purl.org/dc/dcmitype/StillImage" />
        <dc:title></dc:title>
      </cc:Work>
    </rdf:RDF>
  </metadata>
  <sodipodi:namedview
     pagecolor="#ffffff"
     bordercolor="#666666"
     borderopacity="1"
     objecttolerance="10"
     gridtolerance="10"
     guidetolerance="10"
     inkscape:pageopacity="0"
     inkscape:pageshadow="2"
     inkscape:window-width="2048"
     inkscape:window-height="1114"
     id="namedview4862"
     showgrid="false"
     inkscape:zoom="4.9166667"
     inkscape:cx="24"
     inkscape:cy="24"
     inkscape:window-x="0"
     inkscape:window-y="18"
     inkscape:window-maximized="0"
     inkscape:current-layer="svg4860" />
  <defs
     id="defs4816">
    <linearGradient
       id="linearGradient3764"
       x1="1"
       x2="47"
       gradientUnits="userSpaceOnUse"
       gradientTransform="translate(-48.000001,0.00221467)">
      <stop
         stop-color="#717171"
         stop-opacity="1"
         id="stop4801" />
      <stop
         offset="1"
         stop-color="#7b7b7b"
         stop-opacity="1"
         id="stop4803" />
    </linearGradient>
    <clipPath
       id="clipPath-757103217">
      <g
         transform="translate(0,-1004.3622)"
         id="g4808">
        <rect
           rx="4"
           y="1005.36"
           x="1"
           height="46"
           width="46"
           fill="#1890d0"
           id="rect4806" />
      </g>
    </clipPath>
    <clipPath
       id="clipPath-769635487">
      <g
         transform="translate(0,-1004.3622)"
         id="g4813">
        <rect
           rx="4"
           y="1005.36"
           x="1"
           height="46"
           width="46"
           fill="#1890d0"
           id="rect4811" />
      </g>
    </clipPath>
  </defs>
  <g
     id="g4824">
    <path
       d="m 1 43 l 0 0.25 c 0 2.216 1.784 4 4 4 l 38 0 c 2.216 0 4 -1.784 4 -4 l 0 -0.25 c 0 2.216 -1.784 4 -4 4 l -38 0 c -2.216 0 -4 -1.784 -4 -4 z m 0 0.5 l 0 0.5 c 0 2.216 1.784 4 4 4 l 38 0 c 2.216 0 4 -1.784 4 -4 l 0 -0.5 c 0 2.216 -1.784 4 -4 4 l -38 0 c -2.216 0 -4 -1.784 -4 -4 z"
       opacity="0.02"
       id="path4818" />
    <path
       d="m 1 43.25 l 0 0.25 c 0 2.216 1.784 4 4 4 l 38 0 c 2.216 0 4 -1.784 4 -4 l 0 -0.25 c 0 2.216 -1.784 4 -4 4 l -38 0 c -2.216 0 -4 -1.784 -4 -4 z"
       opacity="0.05"
       id="path4820" />
    <path
       d="m 1 43 l 0 0.25 c 0 2.216 1.784 4 4 4 l 38 0 c 2.216 0 4 -1.784 4 -4 l 0 -0.25 c 0 2.216 -1.784 4 -4 4 l -38 0 c -2.216 0 -4 -1.784 -4 -4 z"
       opacity="0.1"
       id="path4822" />
  </g>
  <g
     id="g4828">
    <rect
       width="46"
       height="46"
       x="-47"
       y="1"
       rx="4"
       transform="matrix(0,-1,1,0,0,0)"
       fill="url(#linearGradient3764)"
       fill-opacity="1"
       id="rect4826" />
  </g>
  <g
     id="g4840">
    <g
       clip-path="url(#clipPath-757103217)"
       id="g4838">
      <g
         opacity="0.1"
         id="g4836">
        <!-- color: #7b7b7b -->
        <g
           id="g4834">
          <path
             d="m 26 9 l -4 0 l 0 15 l 4 0 m 0 -15"
             stroke="none"
             fill-rule="nonzero"
             fill-opacity="1"
             fill="#000"
             id="path4830" />
          <path
             d="m 20 9.5 c -6.363 1.766 -11 7.613 -11 14.469 c 0 8.23 6.715 15.03 15 15.03 c 8.285 0 14.996 -6.797 14.996 -15.03 c 0 -6.855 -4.641 -12.703 -10.996 -14.469 l 0 3.875 c 4.184 1.645 7.25 5.75 7.25 10.594 c 0 6.316 -5.05 11.375 -11.25 11.375 c -6.207 0 -11.25 -5.063 -11.25 -11.375 c 0 -4.891 3.02 -9.04 7.25 -10.664 l 0 -3.813 m 0 0.008"
             stroke="none"
             fill-rule="nonzero"
             fill-opacity="1"
             fill="#000"
             id="path4832" />
        </g>
      </g>
    </g>
  </g>
  <g
     id="g4852">
    <g
       clip-path="url(#clipPath-769635487)"
       id="g4850">
      <g
         transform="translate(0,-1)"
         id="g4848">
        <!-- color: #7b7b7b -->
        <g
           id="g4846">
          <path
             d="m 26 9 l -4 0 l 0 15 l 4 0 m 0 -15"
             fill="#f9f9f9"
             stroke="none"
             fill-rule="nonzero"
             fill-opacity="1"
             id="path4842" />
          <path
             d="m 20 9.5 c -6.363 1.766 -11 7.613 -11 14.469 c 0 8.23 6.715 15.03 15 15.03 c 8.285 0 14.996 -6.797 14.996 -15.03 c 0 -6.855 -4.641 -12.703 -10.996 -14.469 l 0 3.875 c 4.184 1.645 7.25 5.75 7.25 10.594 c 0 6.316 -5.05 11.375 -11.25 11.375 c -6.207 0 -11.25 -5.063 -11.25 -11.375 c 0 -4.891 3.02 -9.04 7.25 -10.664 l 0 -3.813 m 0 0.008"
             fill="#f9f9f9"
             stroke="none"
             fill-rule="nonzero"
             fill-opacity="1"
             id="path4844" />
        </g>
      </g>
    </g>
  </g>
  <g
     id="g4858">
    <g
       transform="translate(0,-1004.3622)"
       id="g4856">
      <path
         d="m 1 1043.36 0 4 c 0 2.216 1.784 4 4 4 l 38 0 c 2.216 0 4 -1.784 4 -4 l 0 -4 c 0 2.216 -1.784 4 -4 4 l -38 0 c -2.216 0 -4 -1.784 -4 -4 z"
         opacity="0.1"
         id="path4854" />
    </g>
  </g>
</svg>
